<svg width="801" height="275" viewBox="0 0 801 275" fill="none" xmlns="http://www.w3.org/2000/svg">
<path d="M85.013 12.7758C85.013 12.7758 64.6419 29.8774 71.3316 56.4352C75.2129 71.8437 89.4717 87.2738 108.452 89.9343C132.495 93.3043 143.611 94.0588 168.207 89.9343C187.326 86.7282 199.716 75.2157 204.523 56.4352C211.708 28.3684 191.395 12.7758 191.395 12.7758C191.395 12.7758 164.532 29.7802 153.52 46.1239C144.674 59.2529 154.006 83.2689 138.179 83.6469C122.192 84.0287 132.143 64.1812 121.782 46.1239C112.133 29.3102 99.372 25.799 85.013 12.7758Z" fill="url(#paint0_linear_404_3)"/>
<path d="M150.801 34.7565C150.801 42.0347 144.901 47.9349 137.623 47.9349C130.344 47.9349 124.444 42.0347 124.444 34.7565C124.444 27.4784 131.099 0 138.377 0C145.655 0 150.801 27.4784 150.801 34.7565Z" fill="url(#paint1_linear_404_3)"/>
<path d="M85.013 262.224C85.013 262.224 64.6419 245.123 71.3316 218.565C75.2129 203.156 89.4717 187.726 108.452 185.066C132.495 181.696 143.611 180.941 168.207 185.066C187.326 188.272 199.716 199.784 204.523 218.565C211.708 246.632 191.395 262.224 191.395 262.224C191.395 262.224 164.532 245.22 153.52 228.876C144.674 215.747 154.006 191.731 138.179 191.353C122.192 190.971 132.143 210.819 121.782 228.876C112.133 245.69 99.372 249.201 85.013 262.224Z" fill="url(#paint2_linear_404_3)"/>
<path d="M150.801 240.243C150.801 232.965 144.901 227.065 137.623 227.065C130.344 227.065 124.444 232.965 124.444 240.243C124.444 247.522 131.099 275 138.377 275C145.655 275 150.801 247.522 150.801 240.243Z" fill="url(#paint3_linear_404_3)"/>
<path d="M12.7754 190.546C12.7754 190.546 29.877 210.917 56.4349 204.227C71.8433 200.346 87.2735 186.087 89.934 167.106C93.304 143.063 94.0585 131.947 89.934 107.351C86.7279 88.2322 75.2154 75.8426 56.4349 71.0354C28.3681 63.8511 12.7754 84.1634 12.7754 84.1634C12.7754 84.1634 29.7799 111.026 46.1236 122.038C59.2525 130.885 83.2686 121.553 83.6466 137.38C84.0284 153.367 64.1809 143.415 46.1236 153.777C29.3098 163.425 25.7987 176.187 12.7754 190.546Z" fill="url(#paint4_linear_404_3)"/>
<path d="M34.7566 124.755C42.0347 124.755 47.9349 130.655 47.9349 137.933C47.9349 145.211 42.0347 151.111 34.7566 151.111C27.4784 151.111 0 144.457 0 137.178C0 129.9 27.4784 124.755 34.7566 124.755Z" fill="url(#paint5_linear_404_3)"/>
<path d="M262.225 84.5273C262.225 84.5273 245.123 64.1562 218.565 70.8459C203.157 74.7272 187.726 88.986 185.066 107.966C181.696 132.009 180.942 143.125 185.066 167.722C188.272 186.841 199.785 199.23 218.565 204.038C246.632 211.222 262.225 190.909 262.225 190.909C262.225 190.909 245.22 164.047 228.876 153.034C215.747 144.188 191.731 153.52 191.353 137.693C190.972 121.706 210.819 131.657 228.876 121.296C245.69 111.648 249.201 98.8863 262.225 84.5273Z" fill="url(#paint6_linear_404_3)"/>
<path d="M240.243 150.318C232.965 150.318 227.065 144.418 227.065 137.14C227.065 129.862 232.965 123.962 240.243 123.962C247.522 123.962 275 130.616 275 137.895C275 145.173 247.522 150.318 240.243 150.318Z" fill="url(#paint7_linear_404_3)"/>
<ellipse cx="138.143" cy="137.415" rx="33.4122" ry="33.4121" fill="url(#paint8_linear_404_3)"/>
<path d="M361.024 83L338.368 53.24V83H321.952V15.608H338.368V45.176L360.832 15.608H380.128L354.016 48.632L381.088 83H361.024Z" fill="white"/>
<path d="M427.961 83L405.305 53.24V83H388.889V15.608H405.305V45.176L427.769 15.608H447.065L420.953 48.632L448.025 83H427.961Z" fill="white"/>
<path d="M516.115 83H499.699L472.243 41.432V83H455.827V15.608H472.243L499.699 57.368V15.608H516.115V83Z" fill="white"/>
<path d="M569.294 42.488V56.12H527.054V42.488H569.294Z" fill="white"/>
<path d="M635.062 37.304C635.062 41.208 634.166 44.792 632.374 48.056C630.582 51.256 627.83 53.848 624.118 55.832C620.406 57.816 615.798 58.808 610.294 58.808H600.118V83H583.702V15.608H610.294C615.67 15.608 620.214 16.536 623.926 18.392C627.638 20.248 630.422 22.808 632.278 26.072C634.134 29.336 635.062 33.08 635.062 37.304ZM609.046 45.752C612.182 45.752 614.518 45.016 616.054 43.544C617.59 42.072 618.358 39.992 618.358 37.304C618.358 34.616 617.59 32.536 616.054 31.064C614.518 29.592 612.182 28.856 609.046 28.856H600.118V45.752H609.046Z" fill="white"/>
<path d="M694.968 37.304C694.968 41.208 694.072 44.792 692.28 48.056C690.488 51.256 687.736 53.848 684.024 55.832C680.312 57.816 675.704 58.808 670.2 58.808H660.024V83H643.608V15.608H670.2C675.576 15.608 680.12 16.536 683.832 18.392C687.544 20.248 690.328 22.808 692.184 26.072C694.04 29.336 694.968 33.08 694.968 37.304ZM668.952 45.752C672.088 45.752 674.424 45.016 675.96 43.544C677.496 42.072 678.264 39.992 678.264 37.304C678.264 34.616 677.496 32.536 675.96 31.064C674.424 29.592 672.088 28.856 668.952 28.856H660.024V45.752H668.952Z" fill="white"/>
<path d="M779.834 15.608V83H763.418V42.584L748.346 83H735.098L719.93 42.488V83H703.514V15.608H722.906L741.818 62.264L760.538 15.608H779.834Z" fill="white"/>
<path d="M338.08 115.608V155.928C338.08 159.96 339.072 163.064 341.056 165.24C343.04 167.416 345.952 168.504 349.792 168.504C353.632 168.504 356.576 167.416 358.624 165.24C360.672 163.064 361.696 159.96 361.696 155.928V115.608H378.112V155.832C378.112 161.848 376.832 166.936 374.272 171.096C371.712 175.256 368.256 178.392 363.904 180.504C359.616 182.616 354.816 183.672 349.504 183.672C344.192 183.672 339.424 182.648 335.2 180.6C331.04 178.488 327.744 175.352 325.312 171.192C322.88 166.968 321.664 161.848 321.664 155.832V115.608H338.08Z" fill="white"/>
<path d="M414.887 115.608C421.991 115.608 428.199 117.016 433.511 119.832C438.823 122.648 442.919 126.616 445.799 131.736C448.743 136.792 450.215 142.648 450.215 149.304C450.215 155.896 448.743 161.752 445.799 166.872C442.919 171.992 438.791 175.96 433.415 178.776C428.103 181.592 421.927 183 414.887 183H389.639V115.608H414.887ZM413.831 168.792C420.039 168.792 424.871 167.096 428.327 163.704C431.783 160.312 433.511 155.512 433.511 149.304C433.511 143.096 431.783 138.264 428.327 134.808C424.871 131.352 420.039 129.624 413.831 129.624H406.055V168.792H413.831Z" fill="white"/>
<path d="M501.341 171.096H476.189L472.157 183H454.973L479.357 115.608H498.365L522.749 183H505.373L501.341 171.096ZM497.117 158.424L488.765 133.752L480.509 158.424H497.117Z" fill="white"/>
<path d="M587.962 115.608L564.634 160.728V183H548.218V160.728L524.89 115.608H543.514L556.57 143.832L569.53 115.608H587.962Z" fill="white"/>
<path d="M636.529 171.096H611.377L607.345 183H590.161L614.545 115.608H633.553L657.937 183H640.561L636.529 171.096ZM632.305 158.424L623.953 133.752L615.697 158.424H632.305Z" fill="white"/>
<path d="M725.646 183H709.23L681.774 141.432V183H665.358V115.608H681.774L709.23 157.368V115.608H725.646V183Z" fill="white"/>
<path d="M779.497 171.096H754.345L750.313 183H733.129L757.513 115.608H776.521L800.905 183H783.529L779.497 171.096ZM775.273 158.424L766.921 133.752L758.665 158.424H775.273Z" fill="white"/>
<path d="M338.512 255L327.184 240.12V255H318.976V221.304H327.184V236.088L338.416 221.304H348.064L335.008 237.816L348.544 255H338.512Z" fill="white"/>
<path d="M373.42 249.048H360.844L358.828 255H350.236L362.428 221.304H371.932L384.124 255H375.436L373.42 249.048ZM371.308 242.712L367.132 230.376L363.004 242.712H371.308Z" fill="white"/>
<path d="M408.235 237.72C410.187 238.136 411.755 239.112 412.939 240.648C414.123 242.152 414.715 243.88 414.715 245.832C414.715 248.648 413.723 250.888 411.739 252.552C409.787 254.184 407.051 255 403.531 255H387.835V221.304H403.003C406.427 221.304 409.099 222.088 411.019 223.656C412.971 225.224 413.947 227.352 413.947 230.04C413.947 232.024 413.419 233.672 412.363 234.984C411.339 236.296 409.963 237.208 408.235 237.72ZM396.043 234.936H401.419C402.763 234.936 403.787 234.648 404.491 234.072C405.227 233.464 405.595 232.584 405.595 231.432C405.595 230.28 405.227 229.4 404.491 228.792C403.787 228.184 402.763 227.88 401.419 227.88H396.043V234.936ZM402.091 248.376C403.467 248.376 404.523 248.072 405.259 247.464C406.027 246.824 406.411 245.912 406.411 244.728C406.411 243.544 406.011 242.616 405.211 241.944C404.443 241.272 403.371 240.936 401.995 240.936H396.043V248.376H402.091Z" fill="white"/>
<path d="M440.452 249.048H427.876L425.86 255H417.268L429.46 221.304H438.964L451.156 255H442.468L440.452 249.048ZM438.34 242.712L434.164 230.376L430.036 242.712H438.34Z" fill="white"/>
<path d="M484.574 255L473.246 240.12V255H465.038V221.304H473.246V236.088L484.478 221.304H494.126L481.07 237.816L494.606 255H484.574Z" fill="white"/>
<path d="M519.483 249.048H506.907L504.891 255H496.299L508.491 221.304H517.995L530.187 255H521.499L519.483 249.048ZM517.371 242.712L513.195 230.376L509.067 242.712H517.371Z" fill="white"/>
<path d="M554.297 237.72C556.249 238.136 557.817 239.112 559.001 240.648C560.185 242.152 560.777 243.88 560.777 245.832C560.777 248.648 559.785 250.888 557.801 252.552C555.849 254.184 553.113 255 549.593 255H533.897V221.304H549.065C552.489 221.304 555.161 222.088 557.081 223.656C559.033 225.224 560.009 227.352 560.009 230.04C560.009 232.024 559.481 233.672 558.425 234.984C557.401 236.296 556.025 237.208 554.297 237.72ZM542.105 234.936H547.481C548.825 234.936 549.849 234.648 550.553 234.072C551.289 233.464 551.657 232.584 551.657 231.432C551.657 230.28 551.289 229.4 550.553 228.792C549.849 228.184 548.825 227.88 547.481 227.88H542.105V234.936ZM548.153 248.376C549.529 248.376 550.585 248.072 551.321 247.464C552.089 246.824 552.473 245.912 552.473 244.728C552.473 243.544 552.073 242.616 551.273 241.944C550.505 241.272 549.433 240.936 548.057 240.936H542.105V248.376H548.153Z" fill="white"/>
<path d="M586.514 249.048H573.938L571.922 255H563.33L575.522 221.304H585.026L597.218 255H588.53L586.514 249.048ZM584.402 242.712L580.226 230.376L576.098 242.712H584.402Z" fill="white"/>
<path d="M609.997 248.424C611.085 247.56 611.581 247.16 611.485 247.224C614.621 244.632 617.085 242.504 618.877 240.84C620.701 239.176 622.237 237.432 623.485 235.608C624.733 233.784 625.357 232.008 625.357 230.28C625.357 228.968 625.053 227.944 624.445 227.208C623.837 226.472 622.925 226.104 621.709 226.104C620.493 226.104 619.533 226.568 618.829 227.496C618.157 228.392 617.821 229.672 617.821 231.336H609.901C609.965 228.616 610.541 226.344 611.629 224.52C612.749 222.696 614.205 221.352 615.997 220.488C617.821 219.624 619.837 219.192 622.045 219.192C625.853 219.192 628.717 220.168 630.637 222.12C632.589 224.072 633.565 226.616 633.565 229.752C633.565 233.176 632.397 236.36 630.061 239.304C627.725 242.216 624.749 245.064 621.133 247.848H634.093V254.52H609.997V248.424Z" fill="white"/>
<path d="M637.706 237C637.706 231.496 638.762 227.16 640.874 223.992C643.018 220.824 646.458 219.24 651.194 219.24C655.93 219.24 659.354 220.824 661.466 223.992C663.61 227.16 664.682 231.496 664.682 237C664.682 242.568 663.61 246.936 661.466 250.104C659.354 253.272 655.93 254.856 651.194 254.856C646.458 254.856 643.018 253.272 640.874 250.104C638.762 246.936 637.706 242.568 637.706 237ZM656.618 237C656.618 233.768 656.266 231.288 655.562 229.56C654.858 227.8 653.402 226.92 651.194 226.92C648.986 226.92 647.53 227.8 646.826 229.56C646.122 231.288 645.77 233.768 645.77 237C645.77 239.176 645.898 240.984 646.154 242.424C646.41 243.832 646.922 244.984 647.69 245.88C648.49 246.744 649.658 247.176 651.194 247.176C652.73 247.176 653.882 246.744 654.65 245.88C655.45 244.984 655.978 243.832 656.234 242.424C656.49 240.984 656.618 239.176 656.618 237Z" fill="white"/>
<path d="M668.731 248.424C669.819 247.56 670.315 247.16 670.219 247.224C673.355 244.632 675.819 242.504 677.611 240.84C679.435 239.176 680.971 237.432 682.219 235.608C683.467 233.784 684.091 232.008 684.091 230.28C684.091 228.968 683.787 227.944 683.179 227.208C682.571 226.472 681.659 226.104 680.443 226.104C679.227 226.104 678.267 226.568 677.563 227.496C676.891 228.392 676.555 229.672 676.555 231.336H668.635C668.699 228.616 669.275 226.344 670.363 224.52C671.483 222.696 672.939 221.352 674.731 220.488C676.555 219.624 678.571 219.192 680.779 219.192C684.587 219.192 687.451 220.168 689.371 222.12C691.323 224.072 692.299 226.616 692.299 229.752C692.299 233.176 691.131 236.36 688.795 239.304C686.459 242.216 683.483 245.064 679.867 247.848H692.827V254.52H668.731V248.424Z" fill="white"/>
<path d="M721.113 227.112H706.137V233.736C706.777 233.032 707.673 232.456 708.825 232.008C709.977 231.56 711.225 231.336 712.569 231.336C714.969 231.336 716.953 231.88 718.521 232.968C720.121 234.056 721.289 235.464 722.025 237.192C722.761 238.92 723.129 240.792 723.129 242.808C723.129 246.552 722.073 249.528 719.961 251.736C717.849 253.912 714.873 255 711.033 255C708.473 255 706.249 254.568 704.361 253.704C702.473 252.808 701.017 251.576 699.993 250.008C698.969 248.44 698.409 246.632 698.313 244.584H706.329C706.521 245.576 706.985 246.408 707.721 247.08C708.457 247.72 709.465 248.04 710.745 248.04C712.249 248.04 713.369 247.56 714.105 246.6C714.841 245.64 715.209 244.36 715.209 242.76C715.209 241.192 714.825 239.992 714.057 239.16C713.289 238.328 712.169 237.912 710.697 237.912C709.609 237.912 708.713 238.184 708.009 238.728C707.305 239.24 706.841 239.928 706.617 240.792H698.697V219.912H721.113V227.112Z" fill="white"/>
<defs>
<linearGradient id="paint0_linear_404_3" x1="186.504" y1="82.1068" x2="133.162" y2="-17.3159" gradientUnits="userSpaceOnUse">
<stop stop-color="#2CC197"/>
<stop offset="1" stop-color="#04634D"/>
</linearGradient>
<linearGradient id="paint1_linear_404_3" x1="147.013" y1="41.5546" x2="113.094" y2="21.1247" gradientUnits="userSpaceOnUse">
<stop stop-color="#2CC197"/>
<stop offset="1" stop-color="#04634D"/>
</linearGradient>
<linearGradient id="paint2_linear_404_3" x1="104.956" y1="156.31" x2="140.067" y2="240.243" gradientUnits="userSpaceOnUse">
<stop stop-color="#2CC197"/>
<stop offset="1" stop-color="#04634D"/>
</linearGradient>
<linearGradient id="paint3_linear_404_3" x1="131.218" y1="211.519" x2="159.815" y2="233.61" gradientUnits="userSpaceOnUse">
<stop stop-color="#2CC197"/>
<stop offset="1" stop-color="#04634D"/>
</linearGradient>
<linearGradient id="paint4_linear_404_3" x1="116.568" y1="191.739" x2="31.5799" y2="146.095" gradientUnits="userSpaceOnUse">
<stop stop-color="#2CC197"/>
<stop offset="1" stop-color="#04634D"/>
</linearGradient>
<linearGradient id="paint5_linear_404_3" x1="62.2094" y1="148.431" x2="44.7637" y2="119.438" gradientUnits="userSpaceOnUse">
<stop stop-color="#2CC197"/>
<stop offset="1" stop-color="#04634D"/>
</linearGradient>
<linearGradient id="paint6_linear_404_3" x1="212.175" y1="59.4724" x2="279.423" y2="199.907" gradientUnits="userSpaceOnUse">
<stop stop-color="#2CC197"/>
<stop offset="1" stop-color="#04634D"/>
</linearGradient>
<linearGradient id="paint7_linear_404_3" x1="245.002" y1="122.02" x2="250.055" y2="154.676" gradientUnits="userSpaceOnUse">
<stop stop-color="#2CC197"/>
<stop offset="1" stop-color="#04634D"/>
</linearGradient>
<linearGradient id="paint8_linear_404_3" x1="138.143" y1="104.003" x2="86.1157" y2="214.1" gradientUnits="userSpaceOnUse">
<stop stop-color="#2CC197"/>
<stop offset="1" stop-color="#04634D"/>
</linearGradient>
</defs>
</svg>
